HIERARCHY
ROOT Hips
{
 OFFSET 0.000000 0.000000 0.000000
 CHANNELS 6 Xposition Yposition Zposition Yrotation Xrotation Zrotation
 JOINT Chest
 {
  OFFSET 0.000000 9.585900 0.002600
  CHANNELS 3 Yrotation Xrotation Zrotation
  JOINT Chest2
  {
   OFFSET 0.000000 9.601200 -0.005300
   CHANNELS 3 Yrotation Xrotation Zrotation
   JOINT Chest3
   {
    OFFSET 0.000000 9.561800 0.000000
    CHANNELS 3 Yrotation Xrotation Zrotation
    JOINT Chest4
    {
     OFFSET 0.000000 9.552100 0.000000
     CHANNELS 3 Yrotation Xrotation Zrotation
     JOINT Neck
     {
      OFFSET 0.000000 14.453000 0.000000
      CHANNELS 3 Yrotation Xrotation Zrotation
      JOINT Head
      {
       OFFSET 0.000000 8.936500 -0.011300
       CHANNELS 3 Yrotation Xrotation Zrotation
       End Site
       {
        OFFSET 0.000000 17.073600 -0.006000
       }
      }
     }
     JOINT RightCollar
     {
      OFFSET -2.921100 9.558500 0.000000
      CHANNELS 3 Yrotation Xrotation Zrotation
      JOINT RightShoulder
      {
       OFFSET -13.519700 0.000000 0.000000
       CHANNELS 3 Yrotation Xrotation Zrotation
       JOINT RightElbow
       {
        OFFSET 0.000000 -29.696600 0.000000
        CHANNELS 3 Yrotation Xrotation Zrotation
        JOINT RightWrist
        {
         OFFSET 0.000000 -24.004700 0.000000
         CHANNELS 3 Yrotation Xrotation Zrotation
         End Site
         {
          OFFSET 0.000000 -17.728500 0.000000
         }
        }
       }
      }
     }
     JOINT LeftCollar
     {
      OFFSET 2.921100 9.558500 0.000000
      CHANNELS 3 Yrotation Xrotation Zrotation
      JOINT LeftShoulder
      {
       OFFSET 13.519700 0.000000 0.000000
       CHANNELS 3 Yrotation Xrotation Zrotation
       JOINT LeftElbow
       {
        OFFSET 0.000000 -29.696600 0.000000
        CHANNELS 3 Yrotation Xrotation Zrotation
        JOINT LeftWrist
        {
         OFFSET 0.000000 -24.004700 0.000000
         CHANNELS 3 Yrotation Xrotation Zrotation
         End Site
         {
          OFFSET 0.000000 -17.728500 0.000000
         }
        }
       }
      }
     }
    }
   }
  }
 }
 JOINT RightHip
 {
  OFFSET -7.771700 -0.012900 -0.001300
  CHANNELS 3 Yrotation Xrotation Zrotation
  JOINT RightKnee
  {
   OFFSET 0.000000 -40.869800 0.001200
   CHANNELS 3 Yrotation Xrotation Zrotation
   JOINT RightAnkle
   {
    OFFSET 0.000000 -39.717900 0.002100
    CHANNELS 3 Yrotation Xrotation Zrotation
    JOINT RightToe
    {
     OFFSET 0.000000 -4.965400 11.033500
     CHANNELS 3 Yrotation Xrotation Zrotation
     End Site
     {
      OFFSET 0.000000 -1.423100 5.872300
     }
    }
   }
  }
 }
 JOINT LeftHip
 {
  OFFSET 7.771700 -0.012900 -0.001300
  CHANNELS 3 Yrotation Xrotation Zrotation
  JOINT LeftKnee
  {
   OFFSET 0.000000 -40.869800 0.001200
   CHANNELS 3 Yrotation Xrotation Zrotation
   JOINT LeftAnkle
   {
    OFFSET 0.000000 -39.717900 0.002100
    CHANNELS 3 Yrotation Xrotation Zrotation
    JOINT LeftToe
    {
     OFFSET 0.000000 -4.965400 11.033500
     CHANNELS 3 Yrotation Xrotation Zrotation
     End Site
     {
      OFFSET 0.000000 -1.423100 5.872300
     }
    }
   }
  }
 }
}
MOTION
Frames: 6
Frame Time: 0.008333
-121.970932 57.889991 102.560631 178.110189 -31.749323 -0.908107 1.553425 20.285984 2.627728 0.129621 2.577768 0.270826 0.217412 4.232165 0.452348 1.149276 17.415835 1.997176 -1.707232 16.453605 -5.770941 -1.133599 -5.172806 -10.128765 4.863497 -6.818854 -0.770052 27.566454 -29.452132 -18.258708 98.947226 -69.183733 -50.195540 21.959458 -19.176962 -54.417477 -7.562198 -3.003782 -2.370335 7.185830 -7.342022 4.069767 78.634229 -75.276728 -108.394831 2.290506 -14.319868 32.412570 8.307264 -43.024827 -7.455033 -9.029399 67.470962 -8.724389 6.661643 23.094400 6.653225 -0.277628 -15.922861 1.539531 -7.199543 -41.071332 2.254425 25.367004 64.796476 22.069767 -16.878993 5.860901 -3.053367 -0.015592 -0.103264 -0.011234
-121.975053 57.891083 102.559694 178.102184 -31.731400 -0.895050 1.553385 20.283419 2.620638 0.129946 2.576842 0.271816 0.214164 4.229870 0.451630 1.157572 17.413255 2.007176 -1.701699 16.451005 -5.789921 -1.131968 -5.177404 -10.143255 4.871347 -6.817580 -0.785699 27.546958 -29.447162 -18.243552 98.996400 -69.171505 -50.245229 21.950898 -19.162210 -54.429061 -7.603509 -3.011913 -2.359548 7.201701 -7.341730 4.084059 78.671374 -75.250634 -108.422329 2.290428 -14.295807 32.375552 8.326667 -43.043774 -7.480400 -9.027144 67.472772 -8.716165 6.662782 23.105651 6.652451 -0.274186 -15.931974 1.537298 -7.186760 -41.083561 2.231981 25.382901 64.785056 22.091834 -16.864403 5.856468 -3.051058 -0.022872 -0.097836 -0.014565
-121.981886 57.892052 102.558449 178.109911 -31.715442 -0.871676 1.530835 20.280843 2.589339 0.119642 2.592266 0.275550 0.218050 4.219415 0.450929 1.167203 17.403011 2.012444 -1.694777 16.450417 -5.807835 -1.112895 -5.177067 -10.179022 4.908812 -6.801221 -0.808072 27.498882 -29.455988 -18.228834 99.039792 -69.165284 -50.292902 21.940383 -19.149007 -54.438470 -7.636562 -3.023796 -2.360016 7.210535 -7.330522 4.106582 78.723912 -75.232650 -108.463449 2.293333 -14.294984 32.375935 8.350928 -43.057147 -7.531012 -9.027409 67.473325 -8.708390 6.645450 23.121922 6.640191 -0.254812 -15.943864 1.538519 -7.169916 -41.100102 2.193275 25.387780 64.785347 22.101084 -16.868033 5.834744 -3.056675 -0.011479 -0.079732 -0.009724
-121.982498 57.891832 102.559314 178.113067 -31.686656 -0.880723 1.520728 20.268177 2.596580 0.118028 2.594457 0.273367 0.216301 4.219443 0.451820 1.159443 17.399135 2.015379 -1.683519 16.447530 -5.824070 -1.086169 -5.180963 -10.212782 4.952738 -6.801925 -0.833965 27.467985 -29.464805 -18.218275 98.968365 -69.204877 -50.252089 21.972589 -19.145589 -54.425123 -7.631893 -3.040706 -2.369771 7.200715 -7.312918 4.130206 78.708345 -75.224151 -108.464882 2.286364 -14.318044 32.398914 8.351967 -43.087326 -7.539847 -9.057576 67.473329 -8.721380 6.650755 23.128057 6.639000 -0.256021 -15.947747 1.531650 -7.181836 -41.127251 2.205500 25.401849 64.783021 22.119941 -16.874623 5.829089 -3.062236 -0.007867 -0.075628 -0.008299
-121.982866 57.892684 102.558248 178.108634 -31.671405 -0.883728 1.517257 20.272160 2.597752 0.114715 2.595241 0.276380 0.218992 4.213884 0.451508 1.131956 17.425563 2.027484 -1.658634 16.422818 -5.852722 -1.057114 -5.185981 -10.242715 5.017642 -6.827082 -0.878933 27.412922 -29.458077 -18.180922 99.017657 -69.196325 -50.300561 21.982887 -19.145287 -54.422377 -7.610045 -3.085266 -2.389149 7.197028 -7.284892 4.147750 78.733073 -75.210017 -108.486935 2.296998 -14.286388 32.383448 8.354568 -43.101438 -7.542147 -9.052247 67.471276 -8.710642 6.651140 23.130081 6.641489 -0.255263 -15.948602 1.526681 -7.181440 -41.141875 2.210060 25.411326 64.786153 22.136116 -16.874196 5.823160 -3.064372 -0.008165 -0.074808 -0.008192
-121.984582 57.893433 102.557171 178.110257 -31.655590 -0.878516 1.501403 20.275274 2.588332 0.119790 2.587450 0.276320 0.222412 4.208207 0.450643 1.126088 17.432638 2.031071 -1.651739 16.427926 -5.858464 -1.032308 -5.188923 -10.270933 5.056957 -6.824379 -0.904866 27.356565 -29.446366 -18.136305 99.070429 -69.179969 -50.357502 21.959187 -19.131060 -54.426041 -7.673890 -3.112253 -2.368336 7.258383 -7.232659 4.137596 78.746395 -75.197160 -108.498843 2.299686 -14.278668 32.380384 8.351219 -43.115189 -7.555819 -9.035281 67.473666 -8.692208 6.649119 23.122871 6.638332 -0.257415 -15.943535 1.523533 -7.183418 -41.159515 2.202023 25.414343 64.788280 22.138407 -16.868875 5.828400 -3.057118 -0.021548 -0.078727 -0.012562
